<?xml version="1.0" encoding="utf-8"?>
<!-- Generator: Adobe Illustrator 18.1.0, SVG Export Plug-In . SVG Version: 6.00 Build 0)  -->
<svg version="1.1" id="Capa_1" xmlns="http://www.w3.org/2000/svg" xmlns:xlink="http://www.w3.org/1999/xlink" x="0px" y="0px"
	 viewBox="0 0 50 50" enable-background="new 0 0 50 50" xml:space="preserve">
<g>
	<circle cx="25" cy="9.9" r="8.1"/>
	<path d="M43.2,28.2v-4.8c0-0.5-0.4-0.9-0.9-0.9h-0.9c-2.2,0-4,0.1-5.7,0.2c-2.7-2.5-6.5-4-10.8-4c-4.2,0-8.1,1.5-10.8,4
		c-1.7-0.2-3.6-0.2-5.7-0.2H7.6c-0.5,0-0.9,0.4-0.9,0.9v4.7c-2.1,0.4-3.7,2.3-3.7,4.5c0,2.2,1.6,4.1,3.7,4.5v6.3
		c0,0.5,0.4,0.9,0.9,0.9h0.9c0.1,0,5.1,0,10.7,1.8c3.6,1.2,4.3,1.9,4.3,1.9l3,0c0,0,0.7-0.7,4.3-1.9c5.6-1.8,10.7-1.8,10.7-1.8h0.9
		c0.5,0,0.9-0.4,0.9-0.9v-6.3c2.1-0.4,3.6-2.3,3.6-4.5C46.8,30.5,45.3,28.7,43.2,28.2z M39.8,41c-1.3,0.1-3.2,0.3-5.6,0.8
		c-1.4,0.3-2.9,0.7-4.5,1.2c-1.7,0.5-3,1.1-4,1.6c-0.2,0-0.5,0-0.7,0c-0.2,0-0.5,0-0.7,0c-1-0.5-2.3-1-4-1.6
		c-1.6-0.5-3.1-0.9-4.5-1.2c-2.3-0.5-4.3-0.7-5.6-0.8v-4.5v-3.3v-3v-1.3v-2.8c0.5,0,0.9,0,1.4,0.1c10.1,0.5,11.8,3.3,11.8,3.3
		c0,0.1,0.1,0.1,0.1,0.2l2.9,0c0,0,0.1-0.1,0.1-0.1c0,0,1.7-2.8,11.9-3.3c0.4,0,0.9,0,1.4-0.1v2.8v1.3v3v3.3V41z"/>
</g>
</svg>
