<?xml version="1.0" encoding="utf-8"?>
<!-- Generator: Adobe Illustrator 18.1.0, SVG Export Plug-In . SVG Version: 6.00 Build 0)  -->
<svg version="1.1" id="Capa_1" xmlns="http://www.w3.org/2000/svg" xmlns:xlink="http://www.w3.org/1999/xlink" x="0px" y="0px"
	 viewBox="0 0 50 50" enable-background="new 0 0 50 50" xml:space="preserve">
<path d="M47.3,41.3l-11-11c1.7-2.8,2.7-6.1,2.7-9.6c0-10.2-8.3-18.5-18.5-18.5S2,10.4,2,20.7s8.3,18.5,18.5,18.5
	c3.5,0,6.8-1,9.6-2.7l11,11c0.6,0.6,1.5,0.6,2.1,0l4.1-4.1C47.9,42.8,47.9,41.9,47.3,41.3z M25.5,31.8c-1.5,0.7-3.2,1.1-5,1.1
	c-6.8,0-12.3-5.5-12.3-12.3S13.7,8.4,20.5,8.4s12.3,5.5,12.3,12.3c0,1.8-0.4,3.5-1.1,5C30.5,28.4,28.3,30.6,25.5,31.8z"/>
</svg>
