<?xml version="1.0" encoding="utf-8"?>
<!-- Generator: Adobe Illustrator 18.1.0, SVG Export Plug-In . SVG Version: 6.00 Build 0)  -->
<svg version="1.1" id="Capa_1" xmlns="http://www.w3.org/2000/svg" xmlns:xlink="http://www.w3.org/1999/xlink" x="0px" y="0px"
	 viewBox="0 0 50 50" enable-background="new 0 0 50 50" xml:space="preserve">
<path d="M44.7,2H5.3c-1,0-1.8,0.8-1.8,1.8v42.4c0,1,0.8,1.8,1.8,1.8h39.4c1,0,1.8-0.8,1.8-1.8V3.8C46.5,2.8,45.7,2,44.7,2z
	 M42.4,4.3c0.5,0,0.9,0.4,0.9,0.9s-0.4,0.9-0.9,0.9c-0.5,0-0.9-0.4-0.9-0.9S41.9,4.3,42.4,4.3z M39.3,4.3c0.5,0,0.9,0.4,0.9,0.9
	s-0.4,0.9-0.9,0.9c-0.5,0-0.9-0.4-0.9-0.9S38.8,4.3,39.3,4.3z M36.2,4.3c0.5,0,0.9,0.4,0.9,0.9s-0.4,0.9-0.9,0.9
	c-0.5,0-0.9-0.4-0.9-0.9S35.7,4.3,36.2,4.3z M44.6,44.7c0,0.6-0.5,1-1,1H6.4c-0.6,0-1-0.5-1-1V10.3c0-0.6,0.5-1,1-1h37.2
	c0.6,0,1,0.5,1,1V44.7z"/>
<path d="M10.5,27.1l10.4-4.8v2.3L13,28v0l7.9,3.5v2.3L10.5,29V27.1z"/>
<path d="M22.5,34.7L27.1,19h2.2l-4.6,15.7H22.5z"/>
<path d="M41,29.1l-10.4,4.8v-2.3l8.1-3.5v0l-8.1-3.5v-2.3L41,27.1V29.1z"/>
</svg>
