<?xml version="1.0" encoding="utf-8"?>
<!-- Generator: Adobe Illustrator 18.1.0, SVG Export Plug-In . SVG Version: 6.00 Build 0)  -->
<svg version="1.1" id="Capa_1" xmlns="http://www.w3.org/2000/svg" xmlns:xlink="http://www.w3.org/1999/xlink" x="0px" y="0px"
	 viewBox="0 0 50 50" enable-background="new 0 0 50 50" xml:space="preserve">
<path d="M48,2.3H30.6l6.5,6.5L25.9,25.6l-4-4.2c-0.8-0.8-1.9-1.3-3.1-1.2c-1.2,0.1-2.2,0.7-2.9,1.6L2.5,41.2
	c-1.2,1.8-0.8,4.2,0.9,5.4c0.7,0.5,1.5,0.7,2.2,0.7c1.2,0,2.4-0.6,3.2-1.6l10.7-15.5l4.1,4.3c0.8,0.9,2,1.3,3.1,1.2
	c1.2-0.1,2.2-0.7,2.9-1.7l13-19.5l5.3,5.3V2.3z"/>
</svg>
