<?xml version="1.0" encoding="utf-8"?>
<!-- Generator: Adobe Illustrator 18.1.0, SVG Export Plug-In . SVG Version: 6.00 Build 0)  -->
<svg version="1.1" id="Capa_1" xmlns="http://www.w3.org/2000/svg" xmlns:xlink="http://www.w3.org/1999/xlink" x="0px" y="0px"
	 viewBox="0 0 50 50" enable-background="new 0 0 50 50" xml:space="preserve">
<path d="M47.7,6.2l-13.2,10v-10l-13.2,10v-10L8.2,16.1V3.8c0-1-0.8-1.8-1.8-1.8H4.2c-1,0-1.8,0.8-1.8,1.8v15.4v27
	c0,1,0.8,1.8,1.8,1.8h2.3h39.4c1,0,1.8-0.8,1.8-1.8v-27c0-0.3-0.1-0.7-0.3-0.9h0.3V6.2z M19,32.1c0,1-0.8,1.8-1.8,1.8h-6.6
	c-1,0-1.8-0.8-1.8-1.8v-1.8c0-1,0.8-1.8,1.8-1.8h6.6c1,0,1.8,0.8,1.8,1.8V32.1z M31.8,32.1c0,1-0.8,1.8-1.8,1.8h-6.6
	c-1,0-1.8-0.8-1.8-1.8v-1.8c0-1,0.8-1.8,1.8-1.8h6.6c1,0,1.8,0.8,1.8,1.8V32.1z M44.5,32.1c0,1-0.8,1.8-1.8,1.8h-6.6
	c-1,0-1.8-0.8-1.8-1.8v-1.8c0-1,0.8-1.8,1.8-1.8h6.6c1,0,1.8,0.8,1.8,1.8V32.1z"/>
</svg>
