<?xml version="1.0" encoding="utf-8"?>
<!-- Generator: Adobe Illustrator 18.1.0, SVG Export Plug-In . SVG Version: 6.00 Build 0)  -->
<svg version="1.1" id="Capa_1" xmlns="http://www.w3.org/2000/svg" xmlns:xlink="http://www.w3.org/1999/xlink" x="0px" y="0px"
	 viewBox="0 0 50 50" enable-background="new 0 0 50 50" xml:space="preserve">
<g>
	<path d="M44.3,21c-1,0-2-0.4-2.7-1.1c-0.1-0.1-7.2-6.8-16.4-6.8c-9.3,0-16.3,6.7-16.4,6.8c-1.6,1.5-4.1,1.5-5.6-0.1
		c-1.5-1.6-1.5-4.1,0.1-5.6c0.4-0.4,9.4-9,21.9-9c12.4,0,21.5,8.6,21.9,9c1.6,1.5,1.6,4,0.1,5.6C46.3,20.6,45.3,21,44.3,21z"/>
</g>
<g>
	<path d="M36.4,32.3c-1,0-2-0.4-2.7-1.1c0,0-3.8-3.5-8.5-3.5c-4.7,0-8.4,3.5-8.5,3.5c-1.6,1.5-4.1,1.5-5.6-0.1
		c-1.5-1.6-1.5-4.1,0.1-5.6c0.2-0.2,6-5.7,14-5.7c7.9,0,13.7,5.5,14,5.7c1.6,1.5,1.6,4,0.1,5.6C38.4,31.9,37.4,32.3,36.4,32.3z"/>
</g>
<circle cx="25.2" cy="38.5" r="6.3"/>
</svg>
