<?xml version="1.0" encoding="utf-8"?>
<!-- Generator: Adobe Illustrator 18.1.0, SVG Export Plug-In . SVG Version: 6.00 Build 0)  -->
<svg version="1.1" id="Capa_1" xmlns="http://www.w3.org/2000/svg" xmlns:xlink="http://www.w3.org/1999/xlink" x="0px" y="0px"
	 viewBox="0 0 50 50" enable-background="new 0 0 50 50" xml:space="preserve">
<g>
	<path d="M25,2C12.3,2,2,12.3,2,25s10.3,23,23,23c4.4,0,8.5-1.3,12-3.4c3.1-1.9,5.8-4.5,7.7-7.7c2.1-3.5,3.4-7.6,3.4-12
		C48.1,12.3,37.7,2,25,2z M38.9,31.3c-1.5,3.4-4.3,6.1-7.7,7.7c-1.9,0.9-4,1.3-6.2,1.3c-8.4,0-15.2-6.8-15.2-15.2S16.6,9.8,25,9.8
		c8.4,0,15.2,6.8,15.2,15.2C40.3,27.2,39.8,29.3,38.9,31.3z"/>
	<path d="M25,12l-3.1,12.1c-0.1,0.3-0.2,0.6-0.2,1c0,1.8,1.4,3.2,3.2,3.2c0,0,0,0,0,0s0,0,0,0c0.2,0,0.5,0,0.7-0.1L38.1,25
		l-10.4-2.6L25,12z"/>
</g>
</svg>
