<?xml version="1.0" encoding="utf-8"?>
<!-- Generator: Adobe Illustrator 18.1.0, SVG Export Plug-In . SVG Version: 6.00 Build 0)  -->
<svg version="1.1" id="Capa_1" xmlns="http://www.w3.org/2000/svg" xmlns:xlink="http://www.w3.org/1999/xlink" x="0px" y="0px"
	 viewBox="0 0 50 50" enable-background="new 0 0 50 50" xml:space="preserve">
<path d="M25,2c-5.3,0-10.1,1.8-14,4.8C5.5,11,2,17.6,2,25C2,33,6.1,40.1,12.4,44.2C16,46.6,20.3,48,25,48c12.7,0,23-10.3,23-23
	S37.7,2,25,2z M32.8,25.1L32.8,25.1l-6.1,0v16.4h-7V25.2h-3.4v-5.4h3.4v-3.5c0-4.7,2-7.5,7.6-7.5h6.4v5.8h-5.2
	c-1.6,0-1.7,0.8-1.7,2.3l0,2.9h7L32.8,25.1z"/>
</svg>
