<?xml version="1.0" encoding="utf-8"?>
<!-- Generator: Adobe Illustrator 18.1.0, SVG Export Plug-In . SVG Version: 6.00 Build 0)  -->
<svg version="1.1" id="Capa_1" xmlns="http://www.w3.org/2000/svg" xmlns:xlink="http://www.w3.org/1999/xlink" x="0px" y="0px"
	 viewBox="0 0 50 50" enable-background="new 0 0 50 50" xml:space="preserve">
<g>
	<path d="M46.8,17.4c-0.6-1.6-1.3-3.1-2.1-4.5c-0.2-0.3-0.4-0.6-0.6-0.9c-1.6-2.4-3.7-4.5-6.1-6.1c-3.7-2.5-8.2-4-13-4
		c-4.8,0-9.3,1.5-13,4C9.6,7.5,7.5,9.6,5.9,12c0,0,0,0,0,0.1c2.2-1.9,5.2-3.5,8.3-3.5c3.3,0,13.3,0,13.3,0l-3,2.5h-4.2
		c2.8,1.1,4.3,4.3,4.3,7.7c0,2.8-1.6,5.2-3.8,6.9c-2.2,1.7-2.6,2.4-2.6,3.8c0,1.2,2.3,3.3,3.5,4.1c3.5,2.5,4.7,4.8,4.7,8.6
		c0,2.6-0.6,4.7-1,5.8C33.2,47.9,40,43.9,44.1,38c2.5-3.7,4-8.2,4-13C48.1,22.3,47.6,19.7,46.8,17.4z M36.9,17.8V25h-2.4v-7.2h-7.2
		v-2.4h7.2V8.3h2.4v7.2h7.2v0v2.4H36.9z"/>
	<path d="M14.7,27L14.7,27c3.4,0.1,5.7-3.5,5.1-8c-0.6-4.5-3.9-8.1-7.3-8.2c-3.4-0.1-5.7,3.3-5.1,7.8C8,23.2,11.3,26.9,14.7,27z"/>
	<path d="M6,39c0-0.2-0.1-0.4-0.1-0.6C6,38.6,6,38.8,6,39z"/>
	<path d="M12.8,34.5c0.8,0,1.5,0,2.3,0c-1-1-1.8-2.2-1.8-3.7c0-0.9,0.3-1.7,0.7-2.5c-0.4,0-0.8,0-1.2,0c-2.1,0-4-0.5-5.6-1.5
		c-0.8-0.5-3.9-2.6-4.7-7c-0.4,1.7-0.6,3.4-0.6,5.2c0,4.2,1.1,8.2,3.1,11.6c0.3-0.2,0.5-0.4,0.9-0.6C7.9,35,10.3,34.5,12.8,34.5
		L12.8,34.5z"/>
	<path d="M17.6,36.2c-1-0.3-2.1-0.5-3.3-0.5c-3.1,0-6.1,1.1-7.9,2.9c3.7,5,9.4,8.5,15.9,9.3c0.3-0.8,0.7-2.3,0.7-5.1
		c0-0.5-0.1-0.9-0.2-1.4C22.3,39.3,20.3,38.2,17.6,36.2z"/>
</g>
</svg>
