<?xml version="1.0" encoding="utf-8"?>
<!-- Generator: Adobe Illustrator 18.1.0, SVG Export Plug-In . SVG Version: 6.00 Build 0)  -->
<svg version="1.1" id="Capa_1" xmlns="http://www.w3.org/2000/svg" xmlns:xlink="http://www.w3.org/1999/xlink" x="0px" y="0px"
	 viewBox="0 0 50 50" enable-background="new 0 0 50 50" xml:space="preserve">
<path d="M44.5,35.3L35.8,44c-0.4,0.4-1,0.4-1.4,0L6.5,16.1c-0.4-0.4-0.4-1,0-1.4L15.2,6c0.4-0.4,1-0.4,1.4,0l27.9,27.9
	C44.9,34.3,44.9,34.9,44.5,35.3z"/>
<path d="M35.8,6l8.7,8.7c0.4,0.4,0.4,1,0,1.4L16.6,44c-0.4,0.4-1,0.4-1.4,0l-8.7-8.7c-0.4-0.4-0.4-1,0-1.4L34.4,6
	C34.8,5.6,35.4,5.6,35.8,6z"/>
</svg>
