<?xml version="1.0" encoding="utf-8"?>
<!-- Generator: Adobe Illustrator 18.1.0, SVG Export Plug-In . SVG Version: 6.00 Build 0)  -->
<svg version="1.1" id="Capa_1" xmlns="http://www.w3.org/2000/svg" xmlns:xlink="http://www.w3.org/1999/xlink" x="0px" y="0px"
	 viewBox="0 0 50 50" enable-background="new 0 0 50 50" xml:space="preserve">
<path d="M29.4,16.4c-0.3,0-0.6,0.1-0.8,0.3c-0.2,0.2-0.3,0.5-0.3,0.8c0,0.3,0.1,0.6,0.3,0.8c0.2,0.2,0.5,0.3,0.8,0.3
	c0.3,0,0.6-0.1,0.8-0.3c0.2-0.2,0.3-0.5,0.3-0.8c0-0.3-0.1-0.6-0.3-0.8C29.9,16.5,29.7,16.4,29.4,16.4z"/>
<path d="M39.9,21c0-0.3-0.2-0.6-1-0.6c-0.6,0-1,0.2-1.1,0.6l-2.4,6.3l-2.4-6.2l0,0c-0.2-0.4-0.6-0.7-1.1-0.7c-0.2,0-0.4,0-0.6,0.1
	c-0.4,0.1-0.4,0.4-0.4,0.5c0,0.1,0,0.1,0,0.2l3.5,8.8c0.1,0.3,0.4,0.6,1,0.6c0.4,0,0.7-0.2,0.9-0.6l3.5-8.9
	C39.9,21.1,39.9,21.1,39.9,21z"/>
<path d="M47,20.5l-2.8,0c-0.1,0-0.2,0-0.5,0c-1.4,0-2.4,0.5-3.2,1.5c-0.7,0.9-1,2-1,3.4c0,1.4,0.3,2.6,1,3.6
	c0.8,1.1,1.9,1.7,3.2,1.7c1,0,1.8-0.3,2.4-1v0.5l0,0c0,0.3,0.2,0.6,1,0.6c0.8,0,0.9-0.3,0.9-0.6v-8.9C48,20.9,47.8,20.5,47,20.5z
	 M46,25.5c0,1.7-0.2,2.2-0.2,2.3c-0.5,0.8-1.1,1.1-1.8,1.1c-0.8,0-1.4-0.4-1.8-1.1c-0.3-0.6-0.5-1.4-0.5-2.3c0-0.8,0.1-1.5,0.4-2.1
	c0.3-0.7,0.8-1.1,1.4-1.2H46L46,25.5z"/>
<path d="M29.4,20.5L29.4,20.5c-0.1,0-0.2,0-0.3,0h-3.5l0-3.4c0-0.3-0.1-0.7-1-0.7l0,0c-0.9,0-1,0.5-1,0.7l0,3.5v9.2
	c0,0.3,0.1,0.7,1,0.7c0.8,0,1-0.5,1-0.7v-7.7h2.8l0,2v5.7c0,0.3,0.1,0.7,1,0.7c0.8,0,1-0.5,1-0.7v-4.4l0-4.4
	C30.4,20.9,30.3,20.5,29.4,20.5z"/>
<path d="M22.2,27.3c-0.2-0.2-0.5-0.3-0.7-0.3c-0.3,0-0.5,0.1-0.7,0.4l0,0l0,0c-0.3,1-1,1.4-2,1.4c-1.6,0-2.4-1.1-2.4-3.4
	c0-2.2,0.8-3.3,2.5-3.3c0.8,0,1.3,0.3,1.7,0.9l0,0c0.1,0.2,0.3,0.3,0.5,0.3c0.3,0,0.5-0.1,0.8-0.3c0.3-0.2,0.4-0.5,0.4-0.8
	c0-0.1,0-0.1,0-0.2l0,0c-0.7-1.1-1.8-1.7-3.4-1.7c-0.8,0-1.6,0.2-2.3,0.6c-1.4,0.8-2.1,2.3-2.1,4.5c0,1.5,0.4,2.7,1.1,3.6
	c0.8,1,1.9,1.5,3.4,1.5c1.7,0,3-0.8,3.7-2.3c0.1-0.1,0.1-0.2,0.1-0.4C22.6,27.7,22.4,27.5,22.2,27.3z"/>
<path d="M13.4,23.4c-0.1-0.5-0.4-1-0.8-1.5c-0.8-0.9-1.9-1.4-3.2-1.5c-1.5-0.1-2.7,0.4-3.5,1.4c-0.8,0.9-1.2,2.1-1.2,3.6
	c-0.1,1.5,0.3,2.7,1,3.6c0.8,1,1.9,1.5,3.4,1.5c0.1,0,0.2,0,0.2,0c0.9,0,1.7-0.2,2.4-0.6c0.8-0.5,1.4-1.2,1.6-2.1c0-0.1,0-0.1,0-0.2
	c0-0.3-0.1-0.7-1-0.7c-0.5,0-0.8,0.1-1,0.5l0,0c-0.4,1-1.1,1.4-2.2,1.4c-0.8,0-1.4-0.3-1.8-0.9C7,27.6,6.8,27,6.8,26.2l6.8-0.2
	l0-0.2c0,0,0,0,0-0.1c0-0.1,0-0.1,0-0.2l0,0l0,0C13.6,24.5,13.5,23.8,13.4,23.4z M6.9,24.4c0.1-0.6,0.4-1.1,0.7-1.5
	c0.4-0.4,1-0.6,1.6-0.6c0,0,0.1,0,0.1,0c0.7,0,1.3,0.3,1.8,0.9c0.2,0.3,0.3,0.7,0.4,1.1L6.9,24.4z"/>
<path d="M2.8,16.5L2.8,16.5c-0.9,0-1,0.5-1,0.7V30c0,0.3,0.1,0.7,1,0.7c0.8,0,1-0.5,1-0.7V17.1C3.8,16.9,3.7,16.5,2.8,16.5z"/>
</svg>
