<?xml version="1.0" encoding="utf-8"?>
<!-- Generator: Adobe Illustrator 18.1.0, SVG Export Plug-In . SVG Version: 6.00 Build 0)  -->
<svg version="1.1" id="Capa_1" xmlns="http://www.w3.org/2000/svg" xmlns:xlink="http://www.w3.org/1999/xlink" x="0px" y="0px"
	 viewBox="0 0 50 50" enable-background="new 0 0 50 50" xml:space="preserve">
<path d="M24.8,2.1C12.1,2.1,1.9,12.4,1.9,25s10.2,22.9,22.9,22.9S47.6,37.6,47.6,25S37.4,2.1,24.8,2.1z M20.2,36.1h-4.6v-16h4.6
	V36.1z M17.9,17.8c-1.3,0-2.3-1-2.3-2.3s1-2.3,2.3-2.3s2.3,1,2.3,2.3S19.1,17.8,17.9,17.8z M36.2,36.1L36.2,36.1h-4.6V27
	c0-1.3-1-2.3-2.3-2.3S27,25.7,27,27v9.2h-4.6v-16H27v2.8c0.9-1.3,2.4-2.8,4-2.8c2.8,0,5.2,2.6,5.2,5.7V36.1z"/>
</svg>
