<?xml version="1.0" encoding="utf-8"?>
<!-- Generator: Adobe Illustrator 18.1.0, SVG Export Plug-In . SVG Version: 6.00 Build 0)  -->
<svg version="1.1" id="Capa_1" xmlns="http://www.w3.org/2000/svg" xmlns:xlink="http://www.w3.org/1999/xlink" x="0px" y="0px"
	 viewBox="0 0 50 50" enable-background="new 0 0 50 50" xml:space="preserve">
<path d="M43.9,27l4.2-3.9L43.3,20l2.5-5.2l-5.6-1.1L40.6,8L35,9l-1.6-5.5l-4.9,3L24.9,2l-3.5,4.5l-4.9-3L14.9,9L9.2,8l0.5,5.7
	l-5.6,1.1L6.6,20l-4.8,3.1L5.9,27l-3.4,4.6l5.3,2.1l-1.5,5.5l5.7,0.1l0.6,5.7l5.4-2l2.6,5.1l4.3-3.8l4.3,3.8l2.6-5.1l5.4,2l0.6-5.7
	l5.7-0.1L42,33.7l5.3-2.1L43.9,27z M26.4,35.7c-3.1,0-6-1.3-7.7-3.6c-0.9-1.1-1.5-2.4-1.8-4.1h-2.1v-2.2h1.7c0-0.2,0-0.3,0-0.5
	c0-0.3,0-0.6,0-0.9h-1.8V22H17c0.4-1.7,1.2-3.2,2.2-4.3c1.8-2,4.3-3.2,7.3-3.2c1.9,0,3.6,0.4,4.7,0.9L30.3,19
	c-0.8-0.3-2.1-0.8-3.5-0.8c-1.5,0-2.9,0.5-3.9,1.7c-0.4,0.5-0.8,1.2-1,2.1h7.9v2.2h-8.4c0,0.3,0,0.7,0,1c0,0.2,0,0.3,0,0.5h8.4V28
	h-7.9c0.2,0.9,0.6,1.7,1,2.2c1,1.1,2.5,1.6,4.1,1.6c1.5,0,2.9-0.5,3.6-0.8l0.8,3.5C30.3,35.1,28.4,35.7,26.4,35.7z"/>
</svg>
