<?xml version="1.0" encoding="utf-8"?>
<!-- Generator: Adobe Illustrator 18.1.0, SVG Export Plug-In . SVG Version: 6.00 Build 0)  -->
<svg version="1.1" id="Capa_1" xmlns="http://www.w3.org/2000/svg" xmlns:xlink="http://www.w3.org/1999/xlink" x="0px" y="0px"
	 viewBox="0 0 50 50" enable-background="new 0 0 50 50" xml:space="preserve">
<rect x="14.5" y="10.1" width="21.6" height="2.7"/>
<rect x="14.5" y="14.8" width="21.6" height="2.7"/>
<rect x="14.5" y="19.6" width="21.6" height="2.7"/>
<rect x="14.5" y="24.4" width="11.5" height="2.7"/>
<path d="M34.6,35.2l1.1-1.1l-1.3-0.8l0.7-1.4l-1.5-0.3l0.1-1.5l-1.5,0.3l-0.4-1.5l-1.3,0.8l-1-1.2l-1,1.2l-1.3-0.8l-0.4,1.5L25.2,30
	l0.1,1.5l-1.5,0.3l0.7,1.4l-1.3,0.8l1.1,1.1l-0.9,1.3l1.4,0.6l-0.4,1.5l1.6,0l0.2,1.5l1.5-0.5l0.7,1.4l1.2-1l1.2,1l0.7-1.4l1.5,0.5
	l0.2-1.5l1.6,0L34.1,37l1.4-0.6L34.6,35.2z M29.5,38.1c-1.9,0-3.5-1.6-3.5-3.5c0-1.9,1.6-3.5,3.5-3.5s3.5,1.6,3.5,3.5
	C33,36.6,31.4,38.1,29.5,38.1z"/>
<circle cx="29.5" cy="34.6" r="2.5"/>
<polygon points="22.6,49.8 25.9,42.1 29.5,42.1 26.5,49.8 25.2,48.6 "/>
<polygon points="36.4,49.8 33.1,42.1 29.5,42.1 32.5,49.8 33.7,48.6 "/>
<polygon points="43.4,2 6.6,2 6.6,45.9 22.2,45.9 23.8,42.2 10.4,42.2 10.4,5.8 39.6,5.8 39.6,42.2 35.2,42.2 36.8,45.9 43.4,45.9 
	"/>
</svg>
