<?xml version="1.0" encoding="utf-8"?>
<!-- Generator: Adobe Illustrator 18.1.0, SVG Export Plug-In . SVG Version: 6.00 Build 0)  -->
<svg version="1.1" id="Capa_1" xmlns="http://www.w3.org/2000/svg" xmlns:xlink="http://www.w3.org/1999/xlink" x="0px" y="0px"
	 viewBox="0 0 50 50" enable-background="new 0 0 50 50" xml:space="preserve">
<path d="M28.7,21.9c-0.1,0-0.1,0-0.2-0.1c-3.7-1.1-6.1-1.8-7.3-2.8c-0.7-0.5-1-1.2-1-1.9c0-0.7,0.3-1.3,1-1.9c1-0.8,2.9-1.4,5.7-1.4
	c0.6,0,1.1,0,1.6,0c3.6,0.2,6.3,1,7.9,1.6l2.3-6.2c-2.5-0.8-5.8-1.6-10.3-1.7V2h-7.3v6c-7.3,1.3-11.5,5.1-11.5,9.8
	c0,4.7,4.5,7.8,11.5,9.8c0.4,0.1,0.7,0.2,1.1,0.3c3,0.8,5,1.5,6.2,2.4c1,0.7,1.5,1.5,1.5,2.4c0,1-0.5,1.8-1.5,2.4
	c-1.2,0.8-3.1,1.3-5.8,1.3c-0.5,0-1,0-1.5,0c-3.9-0.2-7.5-1.1-10-2.1l-2.1,6.4c2.4,1,7.2,2,12.1,2.1v5.5h7.3v-6
	c8.2-1.4,12.1-5.5,12.1-10.1C40.6,27.3,36.8,24.2,28.7,21.9z"/>
</svg>
