<?xml version="1.0" encoding="utf-8"?>
<!-- Generator: Adobe Illustrator 18.1.0, SVG Export Plug-In . SVG Version: 6.00 Build 0)  -->
<svg version="1.1" id="Capa_1" xmlns="http://www.w3.org/2000/svg" xmlns:xlink="http://www.w3.org/1999/xlink" x="0px" y="0px"
	 viewBox="0 0 50 50" enable-background="new 0 0 50 50" xml:space="preserve">
<g>
	<circle cx="11.4" cy="35" r="5"/>
	<path d="M11.4,40c-4.7,0-8.5,3.4-9.2,7.9h18.3C19.9,43.4,16.1,40,11.4,40z"/>
</g>
<g>
	<circle cx="38.8" cy="35" r="5"/>
	<path d="M38.8,40c-4.7,0-8.5,3.4-9.2,7.9H48C47.3,43.4,43.5,40,38.8,40z"/>
</g>
<path d="M44,2H15.3c-1.9,0-3.5,1.5-3.5,3.3v2.3H4.8C3.3,7.6,2,8.8,2,10.3v12.5c0,1.5,1.3,2.7,2.8,2.7H5v5l6.9-5h16.3
	c1.1,0,2.1-0.6,2.5-1.5h4.7l8.4,8.4v-8.4H44c1.9,0,3.5-1.5,3.5-3.3V5.3C47.4,3.5,45.9,2,44,2z M44,20.6h-0.2h-1.9v3.3v3.8L38,23.9
	l-3.3-3.3H32h-1.1H15.3v-13V5.3H44L44,20.6z"/>
</svg>
