<?xml version="1.0" encoding="utf-8"?>
<!-- Generator: Adobe Illustrator 18.1.0, SVG Export Plug-In . SVG Version: 6.00 Build 0)  -->
<svg version="1.1" id="Capa_1" xmlns="http://www.w3.org/2000/svg" xmlns:xlink="http://www.w3.org/1999/xlink" x="0px" y="0px"
	 viewBox="0 0 50 50" enable-background="new 0 0 50 50" xml:space="preserve">
<path d="M31.9,48H18.1c-0.5,0-1-0.5-1-1V3c0-0.5,0.5-1,1-1h13.8c0.5,0,1,0.5,1,1v44C32.9,47.6,32.5,48,31.9,48z"/>
<path d="M48,18.1v13.8c0,0.6-0.5,1-1,1H3c-0.5,0-1-0.5-1-1V18.1c0-0.5,0.5-1,1-1h44C47.6,17.1,48,17.5,48,18.1z"/>
</svg>
