<?xml version="1.0" encoding="utf-8"?>
<!-- Generator: Adobe Illustrator 18.1.0, SVG Export Plug-In . SVG Version: 6.00 Build 0)  -->
<svg version="1.1" id="Capa_1" xmlns="http://www.w3.org/2000/svg" xmlns:xlink="http://www.w3.org/1999/xlink" x="0px" y="0px"
	 viewBox="0 0 50 50" enable-background="new 0 0 50 50" xml:space="preserve">
<g>
	<path d="M37.5,8.5c-1.2,0-2.4,0.2-3.4,0.6c-1.8-3.2-5.2-5.4-9.1-5.4c-3.9,0-7.3,2.2-9.1,5.4c-1.1-0.4-2.2-0.6-3.4-0.6
		C6.6,8.5,2,13.2,2,18.9c0,5.7,4.6,10.4,10.4,10.4v9.8c0,1,0.8,1.8,1.8,1.8h21.5c1,0,1.8-0.8,1.8-1.8v-9.8c5.7,0,10.4-4.6,10.4-10.4
		C47.8,13.2,43.2,8.5,37.5,8.5z"/>
	<path d="M35.8,43H14c-0.9,0-1.7,0.7-1.7,1.7c0,0.9,0.7,1.7,1.7,1.7h21.8c0.9,0,1.7-0.7,1.7-1.7C37.5,43.7,36.7,43,35.8,43z"/>
</g>
</svg>
