<?xml version="1.0" encoding="utf-8"?>
<!-- Generator: Adobe Illustrator 18.1.0, SVG Export Plug-In . SVG Version: 6.00 Build 0)  -->
<svg version="1.1" id="Capa_1" xmlns="http://www.w3.org/2000/svg" xmlns:xlink="http://www.w3.org/1999/xlink" x="0px" y="0px"
	 viewBox="0 0 50 50" enable-background="new 0 0 50 50" xml:space="preserve">
<g>
	<path d="M43.6,21.8l1.5,1.2l2.8-2.2l-4.3-3.5l-3.3-2.6L25.1,2.6L10,14.7l-2.7,2.1l-5,4l2.8,2.2l2.2-1.7v21.2H3.8v3.7h3.6h36.2h2.9
		v-3.7h-2.9V21.8z M40,42.5H11V18.4v0H11l4.6-3.7l9.5-7.6l9.5,7.6l4.6,3.7L40,19V42.5z"/>
	<path d="M12,22v16.4c0,0,3.2-1.9,6.4-1.9c3.3,0,6.4,1.9,6.4,1.9V22c0,0-2.6-1.9-6.4-1.9C14.7,20.1,12,22,12,22z"/>
	<path d="M26,22v16.4c0,0,3.2-1.9,6.4-1.9c3.3,0,6.4,1.9,6.4,1.9V22c0,0-2.6-1.9-6.4-1.9C28.6,20.1,26,22,26,22z"/>
</g>
</svg>
