<?xml version="1.0" encoding="utf-8"?>
<!-- Generator: Adobe Illustrator 18.1.0, SVG Export Plug-In . SVG Version: 6.00 Build 0)  -->
<svg version="1.1" id="Capa_1" xmlns="http://www.w3.org/2000/svg" xmlns:xlink="http://www.w3.org/1999/xlink" x="0px" y="0px"
	 viewBox="0 0 50 50" enable-background="new 0 0 50 50" xml:space="preserve">
<path d="M16.4,26.2c-0.3-0.2-0.6-0.3-1-0.3c-0.4,0-0.7,0.2-0.9,0.5l0,0.1c-0.4,1.3-1.3,2-2.7,2c-2.2,0-3.2-1.5-3.2-4.5
	c0-3,1.1-4.5,3.4-4.5c1.1,0,1.8,0.4,2.3,1.3l0,0c0.1,0.2,0.3,0.3,0.6,0.3c0.3,0,0.7-0.1,1-0.4c0.4-0.3,0.6-0.6,0.6-1
	c0-0.1,0-0.1,0-0.2l0,0c-0.9-1.5-2.4-2.3-4.5-2.3c-1.1,0-2.1,0.3-3.1,0.8c-1.9,1-2.8,3.1-2.8,6c0,2,0.5,3.6,1.4,4.7
	c1,1.3,2.5,2,4.5,2c2.3,0,3.9-1,4.9-3c0.1-0.1,0.2-0.3,0.2-0.5C16.9,26.8,16.8,26.5,16.4,26.2z"/>
<path d="M23,17c-2,0-3.5,0.8-4.5,2.3c-0.9,1.1-1.3,2.7-1.3,4.7c0,2,0.5,3.6,1.4,4.7c1,1.3,2.5,2,4.5,2c2,0,3.5-0.8,4.5-2.3
	c0.9-1.1,1.3-2.7,1.3-4.7c0-2-0.5-3.6-1.4-4.7C26.5,17.6,25,17,23,17z M25.9,26.3C25.9,26.3,25.9,26.3,25.9,26.3L25.9,26.3
	c-0.1,0.1-0.1,0.2-0.1,0.3c-0.5,1.1-1.5,1.7-2.8,1.7c-0.7,0-1.5-0.1-2-0.7c-0.1-0.1-0.1-0.1-0.2-0.2c0,0,0,0,0,0
	c0,0-0.1-0.1-0.1-0.1c0,0,0-0.1-0.1-0.1l0,0c0,0,0-0.1,0-0.1c0,0,0-0.1-0.1-0.1c-0.4-0.7-0.5-1.7-0.5-2.9c0-3,1.1-4.5,3.4-4.5
	c0.4,0,1,0.1,1.6,0.3c1,0.7,1.5,2,1.5,4C26.3,24.8,26.2,25.6,25.9,26.3z"/>
<path d="M46.8,19.2c-1-1.3-2.4-2-4.2-2c-0.1,0-0.2,0-0.2,0l-3,0c0,0-0.1,0-0.1,0c-0.4,0-0.8,0.1-1,0.5c-0.1,0.1-0.2,0.2-0.2,0.4v0.1
	c-0.7-0.6-1.6-1-2.9-1c-0.4,0-0.6,0-0.7,0l-3.1,0c-1.1,0-1.3,0.5-1.3,0.9V30c0,0.3,0.2,0.7,1.2,0.7c0.8,0,1.2-0.2,1.3-0.7l0-10.7
	h2.7c0.9,0.2,1.5,0.7,2,1.6c0.4,0.8,0.6,1.7,0.6,2.7V30c0,0.4,0.2,0.8,1.2,0.8c0.9,0,1.3-0.3,1.4-0.8l0-6.3c0,0,0-0.1,0-0.1
	c0,0,0,0,0,0l0-4.2h2.7c0.9,0.2,1.5,0.7,2,1.6c0.4,0.8,0.6,1.7,0.6,2.7V30c0,0.4,0.2,0.8,1.2,0.8c0.9,0,1.3-0.3,1.4-0.8l0-6.3
	C48.1,21.9,47.7,20.3,46.8,19.2z"/>
<path d="M3.6,27.3c-0.5,0-0.9,0.2-1.2,0.5c-0.3,0.3-0.5,0.8-0.5,1.2c0,0.5,0.2,0.9,0.5,1.3c0.3,0.3,0.8,0.5,1.3,0.5
	c0.5,0,0.9-0.2,1.2-0.5c0.3-0.3,0.5-0.8,0.5-1.2c0-0.5-0.2-0.9-0.5-1.2C4.5,27.4,4.1,27.3,3.6,27.3z"/>
</svg>
