<?xml version="1.0" encoding="utf-8"?>
<!-- Generator: Adobe Illustrator 18.1.0, SVG Export Plug-In . SVG Version: 6.00 Build 0)  -->
<svg version="1.1" id="Capa_1" xmlns="http://www.w3.org/2000/svg" xmlns:xlink="http://www.w3.org/1999/xlink" x="0px" y="0px"
	 viewBox="0 0 50 50" enable-background="new 0 0 50 50" xml:space="preserve">
<path d="M25,2.1L25,2.1L25,2.1c-8.9,0-16.1,7.2-16.1,16.1c0,2.3,0.5,6.3,1.4,8.3C12.1,31.7,16.4,40,25,47.9
	c8.6-8,12.9-16.3,14.7-21.5c0.9-2,1.4-6,1.4-8.3C41.1,9.3,33.9,2.1,25,2.1z M25,25.5L25,25.5L25,25.5c-4.1,0-7.4-3.3-7.4-7.4
	c0-4.1,3.3-7.4,7.4-7.4h0h0c4.1,0,7.4,3.3,7.4,7.4C32.4,22.2,29.1,25.5,25,25.5z"/>
</svg>
