<?xml version="1.0" encoding="utf-8"?>
<!-- Generator: Adobe Illustrator 18.1.0, SVG Export Plug-In . SVG Version: 6.00 Build 0)  -->
<svg version="1.1" id="Capa_1" xmlns="http://www.w3.org/2000/svg" xmlns:xlink="http://www.w3.org/1999/xlink" x="0px" y="0px"
	 viewBox="0 0 50 50" enable-background="new 0 0 50 50" xml:space="preserve">
<rect x="21.3" y="25.8" width="7.4" height="24.4"/>
<path fill="none" d="M24.8,47.5v2.7h0.3v-2.7c-0.1,0-0.1,0-0.1,0C24.9,47.5,24.9,47.5,24.8,47.5z"/>
<path d="M25,2C12.4,2,2.2,12.2,2.2,24.8c0,10,6.5,18.5,15.5,21.5v-8.4c-4.6-2.6-7.8-7.5-7.8-13.2c0-8.3,6.7-15.1,15.1-15.1
	s15.1,6.7,15.1,15.1c0,2.2-0.5,4.3-1.3,6.2c-1.3,3-3.6,5.4-6.4,7v8.4c1.6-0.5,3.1-1.3,4.5-2.1c3.1-1.9,5.7-4.5,7.6-7.6
	c2.1-3.4,3.3-7.5,3.3-11.8C47.8,12.2,37.6,2,25,2z"/>
</svg>
