<?xml version="1.0" encoding="utf-8"?>
<!-- Generator: Adobe Illustrator 18.1.0, SVG Export Plug-In . SVG Version: 6.00 Build 0)  -->
<svg version="1.1" id="Capa_1" xmlns="http://www.w3.org/2000/svg" xmlns:xlink="http://www.w3.org/1999/xlink" x="0px" y="0px"
	 viewBox="0 0 50 50" enable-background="new 0 0 50 50" xml:space="preserve">
<path d="M19.2,21.1c0-0.2,0.1-0.4,0.1-0.6v-6.3c0-2.8-2.2-5-5-5c-2.8,0-5,2.2-5,5v6.3c0,0.2,0,0.4,0.1,0.6h-7l12,13.6l12-13.6H19.2z
	"/>
<path d="M31.1,28.9c0,0.2-0.1,0.4-0.1,0.6v6.3c0,2.8,2.2,5,5,5c2.8,0,5-2.2,5-5v-6.3c0-0.2,0-0.4-0.1-0.6h7L36,15.3L24,28.9H31.1z"
	/>
</svg>
