<?xml version="1.0" encoding="utf-8"?>
<!-- Generator: Adobe Illustrator 18.1.0, SVG Export Plug-In . SVG Version: 6.00 Build 0)  -->
<svg version="1.1" id="Capa_1" xmlns="http://www.w3.org/2000/svg" xmlns:xlink="http://www.w3.org/1999/xlink" x="0px" y="0px"
	 viewBox="0 0 50 50" enable-background="new 0 0 50 50" xml:space="preserve">
<g>
	<path d="M26.9,22.6c0.7,0.2,1.3,0.4,1.8,0.8l0.1-4.1l-1.9,1.8V22.6z"/>
	<path d="M14.8,16.9c0-0.7,0.6-1.3,1.3-1.3c0.7,0,1.3,0.6,1.3,1.3V24c0.3-0.3,0.7-0.5,1.1-0.7V12.5c0-0.9,0.7-1.6,1.6-1.6
		c0.9,0,1.6,0.7,1.6,1.6v9.8c0.1,0,0.1,0,0.2,0h1.1V9.6c0-1,0.9-1.9,1.9-1.9c1,0,1.9,0.9,1.9,1.9v11.4l1.9-1.8l0.1-6.6
		c0-1,0.9-1.9,1.9-1.9c1,0,1.9,0.9,1.9,1.9l-0.1,2.9l7.9-7.3C36.5,4.6,31,2.3,25,2.3C12.3,2.3,2,12.6,2,25.4
		c0,5.4,1.8,10.3,4.9,14.2l7.9-7.3v-2.7V16.9z"/>
	<path d="M48.1,25.4c0-5.4-1.8-10.3-4.9-14.2l-10.6,9.8l-0.2,8.8c0,0.2-0.1,0.5-0.2,0.7v0.7c0.7-0.7,1-1.4,1-1.4s0.1-5.9,2.4-6.6
		c2.2-0.7,3.1,1.3,2.2,2.1c-0.8,0.8-1.1,7.5-2,10.2c-0.8,2.2-3.9,3.6-5.2,4.1v8.2C40.7,45.2,48.1,36.1,48.1,25.4z"/>
	<path d="M15.9,36.3l-6.5,6c2.7,2.5,6,4.3,9.7,5.3v-8.5C17.8,38.5,16.7,37.5,15.9,36.3z"/>
</g>
</svg>
