<?xml version="1.0" encoding="utf-8"?>
<!-- Generator: Adobe Illustrator 18.1.0, SVG Export Plug-In . SVG Version: 6.00 Build 0)  -->
<svg version="1.1" id="Capa_1" xmlns="http://www.w3.org/2000/svg" xmlns:xlink="http://www.w3.org/1999/xlink" x="0px" y="0px"
	 viewBox="0 0 50 50" enable-background="new 0 0 50 50" xml:space="preserve">
<path d="M25,2C12.3,2,2,12.3,2,25s10.3,23,23,23s23-10.3,23-23S37.7,2,25,2z M37.6,18.4c0,0.3,0,0.6,0,0.8c0,8.7-6.6,18.7-18.6,18.7
	c-3.7,0-7.1-1.1-10-2.9c0.5,0.1,1,0.1,1.6,0.1c3.1,0,5.9-1,8.1-2.8c-2.9-0.1-5.3-1.9-6.1-4.6c0.4,0.1,0.8,0.1,1.2,0.1
	c0.6,0,1.2-0.1,1.7-0.2c-3-0.6-5.2-3.3-5.2-6.4c0,0,0-0.1,0-0.1c0.9,0.5,1.9,0.8,3,0.8c-1.7-1.2-2.9-3.2-2.9-5.5
	c0-1.2,0.3-2.3,0.9-3.3c3.2,4,8,6.6,13.4,6.9c-0.1-0.5-0.2-1-0.2-1.5c0-3.6,2.9-6.6,6.5-6.6c1.9,0,3.6,0.8,4.8,2.1
	c1.5-0.3,2.9-0.8,4.1-1.6c-0.5,1.5-1.5,2.8-2.9,3.6c1.3-0.2,2.6-0.5,3.7-1C40,16.4,38.9,17.5,37.6,18.4z"/>
</svg>
